<svg width="130" height="130" viewBox="0 0 130 130" fill="none" xmlns="http://www.w3.org/2000/svg">
<path d="M16.25 48.75C23.1689 48.75 29.3896 45.8301 33.833 41.1963C37.6416 54.9072 50.083 65 65.0127 65C82.9766 65 97.2842 50.4639 97.2842 32.5C97.2842 14.5361 82.748 0 65.0127 0C52.2209 0 41.2395 7.45977 35.9404 18.2178C31.5098 12.124 24.375 8.125 16.25 8.125C16.25 16.5979 20.5969 24.0576 27.201 28.4375C20.5994 32.8301 16.25 40.2695 16.25 48.75ZM52.8125 24.375H76.959C81.6816 24.375 85.3125 28.0059 85.3125 32.5H44.6875C44.6875 28.0059 48.3184 24.375 52.8125 24.375ZM85.7695 77.9238L65 105.625L44.2305 77.9238C23.7047 81.6562 8.125 99.582 8.125 121.189C8.125 126.049 12.0656 129.992 16.9254 129.992H113.064C117.924 129.992 121.865 126.052 121.865 121.189C121.875 99.582 106.285 81.6562 85.7695 77.9238Z" fill="#B0B0B0"/>
</svg>
